<svg width="48" height="48" viewBox="0 0 48 48" fill="none" xmlns="http://www.w3.org/2000/svg">
<mask id="path-1-inside-1_13_502" fill="white">
<path d="M28.6196 40.8595H4.34279C4.05196 40.8595 3.81592 40.6239 3.81592 40.3326V0.790608C3.81592 0.499773 4.05196 0.263733 4.34279 0.263733H35.5543C35.8457 0.263733 36.0812 0.499773 36.0812 0.790608V26.8114C36.0812 27.1027 35.8457 27.3383 35.5543 27.3383C35.263 27.3383 35.0275 27.1027 35.0275 26.8114V1.31748H4.86967V39.8057H28.6196C28.911 39.8057 29.1465 40.0412 29.1465 40.3326C29.1465 40.6239 28.911 40.8595 28.6196 40.8595Z"/>
</mask>
<path d="M28.6196 40.8595H4.34279C4.05196 40.8595 3.81592 40.6239 3.81592 40.3326V0.790608C3.81592 0.499773 4.05196 0.263733 4.34279 0.263733H35.5543C35.8457 0.263733 36.0812 0.499773 36.0812 0.790608V26.8114C36.0812 27.1027 35.8457 27.3383 35.5543 27.3383C35.263 27.3383 35.0275 27.1027 35.0275 26.8114V1.31748H4.86967V39.8057H28.6196C28.911 39.8057 29.1465 40.0412 29.1465 40.3326C29.1465 40.6239 28.911 40.8595 28.6196 40.8595Z" fill="white"/>
<path d="M35.0275 1.31748H37.0275V-0.682517H35.0275V1.31748ZM4.86967 1.31748V-0.682517H2.86967V1.31748H4.86967ZM4.86967 39.8057H2.86967V41.8057H4.86967V39.8057ZM28.6196 38.8595H4.34279V42.8595H28.6196V38.8595ZM4.34279 38.8595C5.15522 38.8595 5.81592 39.5181 5.81592 40.3326H1.81592C1.81592 41.7298 2.94869 42.8595 4.34279 42.8595V38.8595ZM5.81592 40.3326V0.790608H1.81592V40.3326H5.81592ZM5.81592 0.790608C5.81592 1.60434 5.15653 2.26373 4.34279 2.26373V-1.73627C2.94739 -1.73627 1.81592 -0.604796 1.81592 0.790608H5.81592ZM4.34279 2.26373H35.5543V-1.73627H4.34279V2.26373ZM35.5543 2.26373C34.7398 2.26373 34.0812 1.60304 34.0812 0.790608H38.0812C38.0812 -0.603493 36.9516 -1.73627 35.5543 -1.73627V2.26373ZM34.0812 0.790608V26.8114H38.0812V0.790608H34.0812ZM34.0812 26.8114C34.0812 25.9982 34.7411 25.3383 35.5543 25.3383V29.3383C36.9503 29.3383 38.0812 28.2073 38.0812 26.8114H34.0812ZM35.5543 25.3383C36.3675 25.3383 37.0275 25.9982 37.0275 26.8114H33.0275C33.0275 28.2073 34.1584 29.3383 35.5543 29.3383V25.3383ZM37.0275 26.8114V1.31748H33.0275V26.8114H37.0275ZM35.0275 -0.682517H4.86967V3.31748H35.0275V-0.682517ZM2.86967 1.31748V39.8057H6.86967V1.31748H2.86967ZM4.86967 41.8057H28.6196V37.8057H4.86967V41.8057ZM28.6196 41.8057C27.8064 41.8057 27.1465 41.1458 27.1465 40.3326H31.1465C31.1465 38.9366 30.0155 37.8057 28.6196 37.8057V41.8057ZM27.1465 40.3326C27.1465 39.5194 27.8064 38.8595 28.6196 38.8595V42.8595C30.0155 42.8595 31.1465 41.7285 31.1465 40.3326H27.1465Z" fill="white" mask="url(#path-1-inside-1_13_502)"/>
<path d="M43.6034 41.7125H42.8252C42.9606 40.419 43.1545 39.2672 43.3474 38.1571C43.7467 35.8484 44.0919 33.8547 43.7357 31.371C43.4917 29.6744 42.3532 28.2297 40.7873 27.6091L39.5217 27.0369C39.2567 26.9168 38.9443 27.0348 38.8247 27.2998C38.7046 27.5654 38.8226 27.8773 39.0876 27.9969L40.3763 28.5785C41.615 29.0696 42.5023 30.1966 42.6925 31.5201C43.0255 33.8383 42.6935 35.7562 42.3089 37.9769C42.1082 39.1355 41.9053 40.34 41.7662 41.7119H32.949C33.3136 39.998 34.1339 38.4701 35.3025 37.3642C35.4068 37.2651 35.4669 37.1276 35.4674 36.9832C35.468 36.8389 35.41 36.7014 35.3057 36.6013L32.617 34.0159C32.3994 33.8257 32.1497 33.6824 31.8752 33.5896C31.8531 33.5823 31.8309 33.577 31.8083 33.5723L29.1423 33.0528C28.3346 32.7651 27.8725 31.9252 28.0659 31.0859L28.1481 30.7277C28.3451 29.8715 29.1823 29.3067 30.0822 29.4442L32.6581 29.6686C32.8273 29.695 32.9916 29.7603 33.1297 29.8562L38.1076 33.3636C38.3452 33.5306 38.6745 33.4743 38.8421 33.2366C39.0096 32.999 38.9527 32.6702 38.7151 32.5022L33.734 28.9927C33.4621 28.804 33.146 28.6771 32.7846 28.6228L30.2087 28.3983C28.7988 28.1781 27.4421 29.1001 27.1217 30.4911L27.0395 30.8494C26.7213 32.2303 27.4948 33.6112 28.8388 34.0622C28.8604 34.0696 28.8825 34.0754 28.9052 34.0796L31.5701 34.5991C31.7003 34.6471 31.8183 34.7166 31.9058 34.792L34.1913 36.9906C33.0264 38.2498 32.2229 39.8969 31.8773 41.7114H30.9416C30.6502 41.7114 30.4147 41.9469 30.4147 42.2383V47.1556C30.4147 47.447 30.6502 47.6825 30.9416 47.6825H43.604C43.8953 47.6825 44.1308 47.447 44.1308 47.1556V42.2393C44.1303 41.948 43.8948 41.7125 43.6034 41.7125ZM43.0766 46.6287H31.4679V42.7662H43.0766V46.6287Z" fill="white"/>
<path d="M30.5623 15.3308H28.9184V6.709C28.9184 6.41817 28.6829 6.18213 28.3915 6.18213C28.1002 6.18213 27.8647 6.41817 27.8647 6.709V15.3308H25.6023V10.0246C25.6023 9.73379 25.3667 9.49775 25.0754 9.49775C24.784 9.49775 24.5485 9.73379 24.5485 10.0246V15.3308H22.2866V12.6774C22.2866 12.3866 22.0506 12.1506 21.7598 12.1506C21.4689 12.1506 21.2329 12.3866 21.2329 12.6774V15.3308H19.667C19.3762 15.3308 19.1401 15.5668 19.1401 15.8577C19.1401 16.1485 19.3762 16.3845 19.667 16.3845H30.5623C30.8536 16.3845 31.0891 16.1485 31.0891 15.8577C31.0891 15.5668 30.8536 15.3308 30.5623 15.3308Z" fill="white"/>
<path d="M11.1864 23.5616H9.71901C9.42818 23.5616 9.19214 23.3256 9.19214 23.0347C9.19214 22.7439 9.42818 22.5079 9.71901 22.5079H11.1864C11.4772 22.5079 11.7132 22.7439 11.7132 23.0347C11.7132 23.3256 11.4777 23.5616 11.1864 23.5616Z" fill="white"/>
<path d="M11.1864 28.2039H9.71901C9.42818 28.2039 9.19214 27.9684 9.19214 27.677C9.19214 27.3857 9.42818 27.1501 9.71901 27.1501H11.1864C11.4772 27.1501 11.7132 27.3857 11.7132 27.677C11.7132 27.9684 11.4777 28.2039 11.1864 28.2039Z" fill="white"/>
<path d="M11.1864 32.8467H9.71901C9.42818 32.8467 9.19214 32.6112 9.19214 32.3198C9.19214 32.0285 9.42818 31.793 9.71901 31.793H11.1864C11.4772 31.793 11.7132 32.0285 11.7132 32.3198C11.7132 32.6112 11.4777 32.8467 11.1864 32.8467Z" fill="white"/>
<path d="M31.0822 23.5616H15.688C15.3972 23.5616 15.1611 23.3256 15.1611 23.0347C15.1611 22.7439 15.3972 22.5079 15.688 22.5079H31.0822C31.3736 22.5079 31.6091 22.7439 31.6091 23.0347C31.6091 23.3256 31.3736 23.5616 31.0822 23.5616Z" fill="white"/>
<path d="M24.4505 28.2039H15.688C15.3972 28.2039 15.1611 27.9684 15.1611 27.677C15.1611 27.3857 15.3972 27.1501 15.688 27.1501H24.4505C24.7413 27.1501 24.9773 27.3857 24.9773 27.677C24.9773 27.9684 24.7413 28.2039 24.4505 28.2039Z" fill="white"/>
<path d="M22.461 32.8467H15.688C15.3972 32.8467 15.1611 32.6112 15.1611 32.3198C15.1611 32.0285 15.3972 31.793 15.688 31.793H22.461C22.7518 31.793 22.9879 32.0285 22.9879 32.3198C22.9879 32.6112 22.7518 32.8467 22.461 32.8467Z" fill="white"/>
</svg>
