<svg xmlns="http://www.w3.org/2000/svg" version="1.1" xmlns:xlink="http://www.w3.org/1999/xlink" xmlns:svgjs="http://svgjs.dev/svgjs" width="1500" height="1500" viewBox="0 0 1500 1500"><rect width="1500" height="1500" fill="#ffffff"></rect><g transform="matrix(0.6666666666666666,0,0,0.6666666666666666,249.39393939393938,574.4461350616328)"><svg viewBox="0 0 396 139" data-background-color="#ffffff" preserveAspectRatio="xMidYMid meet" height="526" width="1500" xmlns="http://www.w3.org/2000/svg" xmlns:xlink="http://www.w3.org/1999/xlink"><g id="tight-bounds" transform="matrix(1,0,0,1,0.2400000000000091,0.08741604496114519)"><svg viewBox="0 0 395.52 138.82489997949352" height="138.82489997949352" width="395.52"><g><svg viewBox="0 0 652.726158549973 229.10255783449395" height="138.82489997949352" width="395.52"><g transform="matrix(1,0,0,1,257.20615854997305,64.3766673634162)"><svg viewBox="0 0 395.52 100.34922310766154" height="100.34922310766154" width="395.52"><g id="textblocktransform"><svg viewBox="0 0 395.52 100.34922310766154" height="100.34922310766154" width="395.52" id="textblock"><g><svg viewBox="0 0 395.52 59.52235872235872" height="59.52235872235872" width="395.52"><g transform="matrix(1,0,0,1,0,0)"><svg width="395.52" viewBox="2.05 -36 244.69 36.75" height="59.52235872235872" data-palette-color="#000000"><g class="wordmark-text-0" data-fill-palette-color="primary" id="text-0"><path d="M31.2-34.2L31.2-9.45Q31.2-7.15 30.55-5.28 29.9-3.4 28.28-2.08 26.65-0.75 23.8 0 20.95 0.75 16.55 0.75L16.55 0.75Q12.2 0.75 9.38 0 6.55-0.75 4.93-2.08 3.3-3.4 2.68-5.28 2.05-7.15 2.05-9.45L2.05-9.45 2.05-17.55Q2.05-18.5 2.48-18.93 2.9-19.35 3.85-19.35L3.85-19.35 11.1-19.35Q12.05-19.35 12.48-18.93 12.9-18.5 12.9-17.55L12.9-17.55 12.9-11.45Q12.9-10.45 13.53-9.78 14.15-9.1 16.45-9.1L16.45-9.1Q18.6-9.1 19.18-9.78 19.75-10.45 19.75-11.45L19.75-11.45 19.75-34.2Q19.75-35.15 20.18-35.58 20.6-36 21.55-36L21.55-36 29.4-36Q30.35-36 30.78-35.58 31.2-35.15 31.2-34.2L31.2-34.2ZM50.9-25.5L50.9-25.5 48.55-17.9 56.4-17.9 54.05-25.5Q53.85-25.95 53.62-26.15 53.4-26.35 53.1-26.35L53.1-26.35 51.85-26.35Q51.55-26.35 51.32-26.15 51.1-25.95 50.9-25.5ZM48.05-8.8L48.05-1.8Q48.05-0.85 47.62-0.43 47.2 0 46.25 0L46.25 0 38.9 0Q37.95 0 37.52-0.43 37.1-0.85 37.1-1.8L37.1-1.8 37.1-15Q37.1-16.5 37.57-18.45 38.05-20.4 39.05-23L39.05-23 43.4-34.35Q43.7-35.2 44.32-35.6 44.95-36 45.95-36L45.95-36 59.4-36Q60.35-36 60.97-35.6 61.6-35.2 61.9-34.35L61.9-34.35 66.25-23Q67.25-20.4 67.72-18.45 68.2-16.5 68.2-15L68.2-15 68.2-1.8Q68.2-0.85 67.77-0.43 67.35 0 66.4 0L66.4 0 58.85 0Q57.85 0 57.37-0.43 56.9-0.85 56.9-1.8L56.9-1.8 56.9-8.8 48.05-8.8ZM83.65 0L83.65 0 76.15 0Q75.2 0 74.77-0.43 74.35-0.85 74.35-1.8L74.35-1.8 74.35-34.2Q74.35-35.15 74.77-35.58 75.2-36 76.15-36L76.15-36 81.35-36Q82.3-36 82.97-35.7 83.65-35.4 84.3-34.65L84.3-34.65 94-23.55 94-34.2Q94-35.15 94.42-35.58 94.85-36 95.8-36L95.8-36 103.3-36Q104.25-36 104.67-35.58 105.1-35.15 105.1-34.2L105.1-34.2 105.1-1.8Q105.1-0.85 104.67-0.43 104.25 0 103.3 0L103.3 0 95.8 0Q94.85 0 94.42-0.43 94-0.85 94-1.8L94-1.8 94-7.95 85.45-18.3 85.45-1.8Q85.45-0.85 85.02-0.43 84.6 0 83.65 0ZM133.29 0L133.29 0 120.29 0Q119.34 0 118.72-0.35 118.09-0.7 117.74-1.65L117.74-1.65 112.84-13.9Q112.39-15 112.09-15.83 111.79-16.65 111.59-17.4 111.39-18.15 111.32-18.98 111.24-19.8 111.24-21L111.24-21 111.24-34.2Q111.24-35.15 111.67-35.58 112.09-36 113.04-36L113.04-36 120.99-36Q121.94-36 122.44-35.58 122.94-35.15 122.94-34.2L122.94-34.2 122.94-20.4Q122.94-19.9 123.04-19.4 123.14-18.9 123.34-18.35L123.34-18.35 125.69-11.35Q125.84-10.85 126.04-10.68 126.24-10.5 126.64-10.5L126.64-10.5 127.19-10.5Q127.59-10.5 127.79-10.68 127.99-10.85 128.14-11.35L128.14-11.35 130.49-18.4Q130.69-18.95 130.79-19.45 130.89-19.95 130.89-20.45L130.89-20.45 130.89-34.2Q130.89-35.15 131.32-35.58 131.74-36 132.69-36L132.69-36 140.54-36Q141.49-36 141.92-35.58 142.34-35.15 142.34-34.2L142.34-34.2 142.34-21Q142.34-19.8 142.27-18.98 142.19-18.15 141.99-17.4 141.79-16.65 141.49-15.83 141.19-15 140.74-13.9L140.74-13.9 135.84-1.65Q135.49-0.7 134.87-0.35 134.24 0 133.29 0ZM161.54-25.5L161.54-25.5 159.19-17.9 167.04-17.9 164.69-25.5Q164.49-25.95 164.27-26.15 164.04-26.35 163.74-26.35L163.74-26.35 162.49-26.35Q162.19-26.35 161.97-26.15 161.74-25.95 161.54-25.5ZM158.69-8.8L158.69-1.8Q158.69-0.85 158.27-0.43 157.84 0 156.89 0L156.89 0 149.54 0Q148.59 0 148.17-0.43 147.74-0.85 147.74-1.8L147.74-1.8 147.74-15Q147.74-16.5 148.22-18.45 148.69-20.4 149.69-23L149.69-23 154.04-34.35Q154.34-35.2 154.97-35.6 155.59-36 156.59-36L156.59-36 170.04-36Q170.99-36 171.62-35.6 172.24-35.2 172.54-34.35L172.54-34.35 176.89-23Q177.89-20.4 178.37-18.45 178.84-16.5 178.84-15L178.84-15 178.84-1.8Q178.84-0.85 178.42-0.43 177.99 0 177.04 0L177.04 0 169.49 0Q168.49 0 168.02-0.43 167.54-0.85 167.54-1.8L167.54-1.8 167.54-8.8 158.69-8.8ZM194.29 0L194.29 0 186.79 0Q185.84 0 185.41-0.43 184.99-0.85 184.99-1.8L184.99-1.8 184.99-34.2Q184.99-35.15 185.41-35.58 185.84-36 186.79-36L186.79-36 191.99-36Q192.94-36 193.61-35.7 194.29-35.4 194.94-34.65L194.94-34.65 204.64-23.55 204.64-34.2Q204.64-35.15 205.06-35.58 205.49-36 206.44-36L206.44-36 213.94-36Q214.89-36 215.31-35.58 215.74-35.15 215.74-34.2L215.74-34.2 215.74-1.8Q215.74-0.85 215.31-0.43 214.89 0 213.94 0L213.94 0 206.44 0Q205.49 0 205.06-0.43 204.64-0.85 204.64-1.8L204.64-1.8 204.64-7.95 196.09-18.3 196.09-1.8Q196.09-0.85 195.66-0.43 195.24 0 194.29 0ZM244.94 0L223.64 0Q222.69 0 222.26-0.43 221.84-0.85 221.84-1.8L221.84-1.8 221.84-7.75Q221.84-8.7 222.26-9.13 222.69-9.55 223.64-9.55L223.64-9.55 228.59-9.55 228.59-26.35 223.64-26.35Q222.69-26.35 222.26-26.78 221.84-27.2 221.84-28.15L221.84-28.15 221.84-34.2Q221.84-35.15 222.26-35.58 222.69-36 223.64-36L223.64-36 244.94-36Q245.89-36 246.31-35.58 246.74-35.15 246.74-34.2L246.74-34.2 246.74-28.15Q246.74-27.2 246.31-26.78 245.89-26.35 244.94-26.35L244.94-26.35 240.09-26.35 240.09-9.55 244.94-9.55Q245.89-9.55 246.31-9.13 246.74-8.7 246.74-7.75L246.74-7.75 246.74-1.8Q246.74-0.85 246.31-0.43 245.89 0 244.94 0L244.94 0Z" fill="#000000" data-fill-palette-color="primary"></path></g></svg></g></svg></g><g transform="matrix(1,0,0,1,75.54431999999998,73.57415908009827)"><svg viewBox="0 0 244.43136 26.775064027563264" height="26.775064027563264" width="244.43136"><g transform="matrix(1,0,0,1,0,0)"><svg width="244.43136" viewBox="0.49 -35.01 410.93 45.019999999999996" height="26.775064027563264" data-palette-color="#89939e"><path d="M19.7-25L7.06 10.01 4.15 10.01 8.59-2.15 0.49-25 3.49-25 10.01-6.05 10.11-4.76 10.21-6.05 16.7-25 19.7-25ZM39.4-6.86L39.4-6.86Q39.4-5.35 38.83-4 38.25-2.66 37.25-1.66 36.25-0.66 34.91-0.09 33.57 0.49 32.05 0.49L32.05 0.49 30.05 0.49Q28.54 0.49 27.19-0.09 25.85-0.66 24.85-1.66 23.85-2.66 23.28-4 22.7-5.35 22.7-6.86L22.7-6.86 22.7-18.14Q22.7-19.65 23.28-21 23.85-22.34 24.85-23.34 25.85-24.34 27.19-24.91 28.54-25.49 30.05-25.49L30.05-25.49 32.05-25.49Q33.57-25.49 34.91-24.91 36.25-24.34 37.25-23.34 38.25-22.34 38.83-21 39.4-19.65 39.4-18.14L39.4-18.14 39.4-6.86ZM36.4-6.69L36.4-18.31Q36.4-19.21 36.06-20.01 35.72-20.8 35.13-21.39 34.54-21.97 33.75-22.31 32.96-22.66 32.05-22.66L32.05-22.66 30.05-22.66Q29.15-22.66 28.35-22.31 27.56-21.97 26.98-21.39 26.39-20.8 26.05-20.01 25.71-19.21 25.71-18.31L25.71-18.31 25.71-6.69Q25.71-5.79 26.05-4.99 26.39-4.2 26.98-3.61 27.56-3.03 28.35-2.69 29.15-2.34 30.05-2.34L30.05-2.34 32.05-2.34Q32.96-2.34 33.75-2.69 34.54-3.03 35.13-3.61 35.72-4.2 36.06-4.99 36.4-5.79 36.4-6.69L36.4-6.69ZM62.1 0L61.1 0 59.44-2.54Q58.42-1.15 56.88-0.33 55.34 0.49 53.51 0.49L53.51 0.49 52.75 0.49Q51.24 0.49 49.9-0.09 48.55-0.66 47.55-1.66 46.55-2.66 45.98-4 45.41-5.35 45.41-6.86L45.41-6.86 45.41-25 48.41-25 48.41-6.69Q48.41-5.79 48.75-4.99 49.09-4.2 49.68-3.61 50.26-3.03 51.06-2.69 51.85-2.34 52.75-2.34L52.75-2.34 54.76-2.34Q55.66-2.34 56.45-2.69 57.25-3.03 57.83-3.61 58.42-4.2 58.76-4.99 59.1-5.79 59.1-6.69L59.1-6.69 59.1-25 62.1-25 62.1 0ZM78.46-22.14L75.46-22.14Q74.55-22.14 73.76-21.8 72.97-21.46 72.38-20.87 71.79-20.29 71.45-19.49 71.11-18.7 71.11-17.8L71.11-17.8 71.11 0 68.11 0 68.11-25 69.11-25 70.74-22.46Q71.77-23.85 73.32-24.67 74.87-25.49 76.7-25.49L76.7-25.49 78.46-25.49 78.46-22.14ZM110.66-25L101.79 0 100.3 0 91.44-25 94.45-25 100.96-6.05 101.06-4.76 101.16-6.05 107.65-25 110.66-25ZM130.84-6.86L130.84-6.86Q130.84-5.35 130.27-4 129.7-2.66 128.7-1.66 127.69-0.66 126.35-0.09 125.01 0.49 123.5 0.49L123.5 0.49 121.49 0.49Q119.98 0.49 118.64-0.09 117.29-0.66 116.29-1.66 115.29-2.66 114.72-4 114.15-5.35 114.15-6.86L114.15-6.86 114.15-18.14Q114.15-19.65 114.72-21 115.29-22.34 116.29-23.34 117.29-24.34 118.64-24.91 119.98-25.49 121.49-25.49L121.49-25.49 123.5-25.49Q125.01-25.49 126.35-24.91 127.69-24.34 128.7-23.34 129.7-22.34 130.27-21 130.84-19.65 130.84-18.14L130.84-18.14 130.84-6.86ZM127.84-6.69L127.84-18.31Q127.84-19.21 127.5-20.01 127.16-20.8 126.57-21.39 125.99-21.97 125.19-22.31 124.4-22.66 123.5-22.66L123.5-22.66 121.49-22.66Q120.59-22.66 119.8-22.31 119-21.97 118.42-21.39 117.83-20.8 117.49-20.01 117.15-19.21 117.15-18.31L117.15-18.31 117.15-6.69Q117.15-5.79 117.49-4.99 117.83-4.2 118.42-3.61 119-3.03 119.8-2.69 120.59-2.34 121.49-2.34L121.49-2.34 123.5-2.34Q124.4-2.34 125.19-2.69 125.99-3.03 126.57-3.61 127.16-4.2 127.5-4.99 127.84-5.79 127.84-6.69L127.84-6.69ZM141.1-31.01L137.6-31.01 137.6-35.01 141.1-35.01 141.1-31.01ZM140.85 0L137.85 0 137.85-25 140.85-25 140.85 0ZM164.56-6.86L164.56-6.86Q164.56-5.35 163.98-4 163.41-2.66 162.41-1.66 161.41-0.66 160.06-0.09 158.72 0.49 157.21 0.49L157.21 0.49 155.2 0.49Q153.69 0.49 152.35-0.09 151.01-0.66 150-1.66 149-2.66 148.43-4 147.86-5.35 147.86-6.86L147.86-6.86 147.86-18.14Q147.86-19.65 148.43-21 149-22.34 150-23.34 151.01-24.34 152.35-24.91 153.69-25.49 155.2-25.49L155.2-25.49 157.21-25.49Q158.72-25.49 160.06-24.91 161.41-24.34 162.41-23.34 163.41-22.34 163.98-21 164.56-19.65 164.56-18.14L164.56-18.14 164.56-17.14 161.55-16.65 161.55-18.31Q161.55-19.21 161.21-20.01 160.87-20.8 160.28-21.39 159.7-21.97 158.9-22.31 158.11-22.66 157.21-22.66L157.21-22.66 155.2-22.66Q154.3-22.66 153.51-22.31 152.71-21.97 152.13-21.39 151.54-20.8 151.2-20.01 150.86-19.21 150.86-18.31L150.86-18.31 150.86-6.69Q150.86-5.79 151.2-4.99 151.54-4.2 152.13-3.61 152.71-3.03 153.51-2.69 154.3-2.34 155.2-2.34L155.2-2.34 157.21-2.34Q158.11-2.34 158.9-2.69 159.7-3.03 160.28-3.61 160.87-4.2 161.21-4.99 161.55-5.79 161.55-6.69L161.55-6.69 161.55-8.35 164.56-7.86 164.56-6.86ZM187.26-6.86L187.26-6.86Q187.26-5.35 186.68-4 186.11-2.66 185.11-1.66 184.11-0.66 182.77-0.09 181.42 0.49 179.91 0.49L179.91 0.49 177.91 0.49Q176.39 0.49 175.05-0.09 173.71-0.66 172.71-1.66 171.71-2.66 171.13-4 170.56-5.35 170.56-6.86L170.56-6.86 170.56-18.14Q170.56-19.65 171.13-21 171.71-22.34 172.71-23.34 173.71-24.34 175.05-24.91 176.39-25.49 177.91-25.49L177.91-25.49 179.91-25.49Q181.42-25.49 182.77-24.91 184.11-24.34 185.11-23.34 186.11-22.34 186.68-21 187.26-19.65 187.26-18.14L187.26-18.14 187.26-12.26 173.56-12.26 173.56-6.69Q173.56-5.79 173.9-4.99 174.25-4.2 174.83-3.61 175.42-3.03 176.21-2.69 177-2.34 177.91-2.34L177.91-2.34 179.91-2.34Q180.81-2.34 181.61-2.69 182.4-3.03 182.99-3.61 183.57-4.2 183.91-4.99 184.25-5.79 184.25-6.69L184.25-6.69 184.25-8.35 187.26-7.86 187.26-6.86ZM184.25-14.6L184.25-18.31Q184.25-19.21 183.91-20.01 183.57-20.8 182.99-21.39 182.4-21.97 181.61-22.31 180.81-22.66 179.91-22.66L179.91-22.66 177.91-22.66Q177-22.66 176.21-22.31 175.42-21.97 174.83-21.39 174.25-20.8 173.9-20.01 173.56-19.21 173.56-18.31L173.56-18.31 173.56-14.6 184.25-14.6ZM209.01-3.76L206.52 7.01 205.25 7.01 205.25-3.76 209.01-3.76ZM243.69-6.86L243.69-6.86Q243.69-5.35 243.12-4 242.55-2.66 241.54-1.66 240.54-0.66 239.2-0.09 237.86 0.49 236.34 0.49L236.34 0.49 234.34 0.49Q232.83 0.49 231.49-0.09 230.14-0.66 229.14-1.66 228.14-2.66 227.57-4 226.99-5.35 226.99-6.86L226.99-6.86 226.99-18.14Q226.99-19.65 227.57-21 228.14-22.34 229.14-23.34 230.14-24.34 231.49-24.91 232.83-25.49 234.34-25.49L234.34-25.49 236.34-25.49Q237.86-25.49 239.2-24.91 240.54-24.34 241.54-23.34 242.55-22.34 243.12-21 243.69-19.65 243.69-18.14L243.69-18.14 243.69-6.86ZM240.69-6.69L240.69-18.31Q240.69-19.21 240.35-20.01 240.01-20.8 239.42-21.39 238.83-21.97 238.04-22.31 237.25-22.66 236.34-22.66L236.34-22.66 234.34-22.66Q233.44-22.66 232.65-22.31 231.85-21.97 231.27-21.39 230.68-20.8 230.34-20.01 230-19.21 230-18.31L230-18.31 230-6.69Q230-5.79 230.34-4.99 230.68-4.2 231.27-3.61 231.85-3.03 232.65-2.69 233.44-2.34 234.34-2.34L234.34-2.34 236.34-2.34Q237.25-2.34 238.04-2.69 238.83-3.03 239.42-3.61 240.01-4.2 240.35-4.99 240.69-5.79 240.69-6.69L240.69-6.69ZM266.4 0L265.39 0 263.73-2.54Q262.71-1.15 261.17-0.33 259.63 0.49 257.8 0.49L257.8 0.49 257.05 0.49Q255.53 0.49 254.19-0.09 252.85-0.66 251.84-1.66 250.84-2.66 250.27-4 249.7-5.35 249.7-6.86L249.7-6.86 249.7-25 252.7-25 252.7-6.69Q252.7-5.79 253.04-4.99 253.38-4.2 253.97-3.61 254.55-3.03 255.35-2.69 256.14-2.34 257.05-2.34L257.05-2.34 259.05-2.34Q259.95-2.34 260.74-2.69 261.54-3.03 262.12-3.61 262.71-4.2 263.05-4.99 263.39-5.79 263.39-6.69L263.39-6.69 263.39-25 266.4-25 266.4 0ZM282.75-22.14L279.75-22.14Q278.84-22.14 278.05-21.8 277.26-21.46 276.67-20.87 276.09-20.29 275.74-19.49 275.4-18.7 275.4-17.8L275.4-17.8 275.4 0 272.4 0 272.4-25 273.4-25 275.04-22.46Q276.06-23.85 277.61-24.67 279.16-25.49 280.99-25.49L280.99-25.49 282.75-25.49 282.75-22.14ZM314.95 0L313.95 0 312.29-2.49Q311.26-1.15 309.72-0.33 308.19 0.49 306.35 0.49L306.35 0.49 305.6 0.49Q304.08 0.49 302.74-0.09 301.4-0.66 300.4-1.66 299.4-2.66 298.82-4 298.25-5.35 298.25-6.86L298.25-6.86 298.25-7.1Q298.25-8.62 298.82-9.96 299.4-11.3 300.4-12.3 301.4-13.31 302.74-13.88 304.08-14.45 305.6-14.45L305.6-14.45 311.94-14.45 311.94-18.31Q311.94-19.21 311.6-20.01 311.26-20.8 310.68-21.39 310.09-21.97 309.3-22.31 308.5-22.66 307.6-22.66L307.6-22.66 305.84-22.66Q304.94-22.66 304.14-22.31 303.35-21.97 302.77-21.39 302.18-20.8 301.84-20.01 301.5-19.21 301.5-18.31L301.5-18.31 301.5-17.41 298.49-17.9 298.49-18.14Q298.49-19.65 299.07-21 299.64-22.34 300.64-23.34 301.64-24.34 302.98-24.91 304.33-25.49 305.84-25.49L305.84-25.49 307.6-25.49Q309.11-25.49 310.46-24.91 311.8-24.34 312.8-23.34 313.8-22.34 314.37-21 314.95-19.65 314.95-18.14L314.95-18.14 314.95 0ZM311.94-6.69L311.94-12.11 305.6-12.11Q304.69-12.11 303.9-11.77 303.11-11.43 302.52-10.83 301.94-10.23 301.59-9.44 301.25-8.64 301.25-7.74L301.25-7.74 301.25-6.69Q301.25-5.79 301.59-4.99 301.94-4.2 302.52-3.61 303.11-3.03 303.9-2.69 304.69-2.34 305.6-2.34L305.6-2.34 307.6-2.34Q308.5-2.34 309.3-2.69 310.09-3.03 310.68-3.61 311.26-4.2 311.6-4.99 311.94-5.79 311.94-6.69L311.94-6.69ZM337.65-6.86L337.65-6.86Q337.65-5.35 337.08-4 336.5-2.66 335.5-1.66 334.5-0.66 333.16-0.09 331.82 0.49 330.3 0.49L330.3 0.49 328.3 0.49Q326.79 0.49 325.44-0.09 324.1-0.66 323.1-1.66 322.1-2.66 321.52-4 320.95-5.35 320.95-6.86L320.95-6.86 320.95-18.14Q320.95-19.65 321.52-21 322.1-22.34 323.1-23.34 324.1-24.34 325.44-24.91 326.79-25.49 328.3-25.49L328.3-25.49 330.3-25.49Q331.82-25.49 333.16-24.91 334.5-24.34 335.5-23.34 336.5-22.34 337.08-21 337.65-19.65 337.65-18.14L337.65-18.14 337.65-17.14 334.65-16.65 334.65-18.31Q334.65-19.21 334.31-20.01 333.96-20.8 333.38-21.39 332.79-21.97 332-22.31 331.21-22.66 330.3-22.66L330.3-22.66 328.3-22.66Q327.4-22.66 326.6-22.31 325.81-21.97 325.22-21.39 324.64-20.8 324.3-20.01 323.95-19.21 323.95-18.31L323.95-18.31 323.95-6.69Q323.95-5.79 324.3-4.99 324.64-4.2 325.22-3.61 325.81-3.03 326.6-2.69 327.4-2.34 328.3-2.34L328.3-2.34 330.3-2.34Q331.21-2.34 332-2.69 332.79-3.03 333.38-3.61 333.96-4.2 334.31-4.99 334.65-5.79 334.65-6.69L334.65-6.69 334.65-8.35 337.65-7.86 337.65-6.86ZM355.49 0L352.76 0Q351.39 0 350.18-0.51 348.98-1.03 348.08-1.93 347.19-2.83 346.67-4.03 346.14-5.22 346.14-6.59L346.14-6.59 346.14-22.14 341.65-22.14 341.65-25 346.14-25 346.14-31.01 349.15-31.49 349.15-25 355.49-25 355.49-22.14 349.15-22.14 349.15-6.45Q349.15-5.69 349.43-5.04 349.71-4.39 350.2-3.91 350.68-3.42 351.34-3.14 352-2.86 352.76-2.86L352.76-2.86 355.49-2.86 355.49 0ZM365.26-31.01L361.77-31.01 361.77-35.01 365.26-35.01 365.26-31.01ZM365.01 0L362.01 0 362.01-25 365.01-25 365.01 0ZM388.72-6.86L388.72-6.86Q388.72-5.35 388.14-4 387.57-2.66 386.57-1.66 385.57-0.66 384.22-0.09 382.88 0.49 381.37 0.49L381.37 0.49 379.37 0.49Q377.85 0.49 376.51-0.09 375.17-0.66 374.17-1.66 373.17-2.66 372.59-4 372.02-5.35 372.02-6.86L372.02-6.86 372.02-18.14Q372.02-19.65 372.59-21 373.17-22.34 374.17-23.34 375.17-24.34 376.51-24.91 377.85-25.49 379.37-25.49L379.37-25.49 381.37-25.49Q382.88-25.49 384.22-24.91 385.57-24.34 386.57-23.34 387.57-22.34 388.14-21 388.72-19.65 388.72-18.14L388.72-18.14 388.72-6.86ZM385.71-6.69L385.71-18.31Q385.71-19.21 385.37-20.01 385.03-20.8 384.44-21.39 383.86-21.97 383.07-22.31 382.27-22.66 381.37-22.66L381.37-22.66 379.37-22.66Q378.46-22.66 377.67-22.31 376.88-21.97 376.29-21.39 375.7-20.8 375.36-20.01 375.02-19.21 375.02-18.31L375.02-18.31 375.02-6.69Q375.02-5.79 375.36-4.99 375.7-4.2 376.29-3.61 376.88-3.03 377.67-2.69 378.46-2.34 379.37-2.34L379.37-2.34 381.37-2.34Q382.27-2.34 383.07-2.69 383.86-3.03 384.44-3.61 385.03-4.2 385.37-4.99 385.71-5.79 385.71-6.69L385.71-6.69ZM411.42 0L408.42 0 408.42-18.31Q408.42-19.21 408.07-20.01 407.73-20.8 407.15-21.39 406.56-21.97 405.77-22.31 404.97-22.66 404.07-22.66L404.07-22.66 402.07-22.66Q401.17-22.66 400.37-22.31 399.58-21.97 398.99-21.39 398.41-20.8 398.07-20.01 397.72-19.21 397.72-18.31L397.72-18.31 397.72 0 394.72 0 394.72-25 395.72-25 397.36-22.46Q398.38-23.85 399.93-24.67 401.48-25.49 403.31-25.49L403.31-25.49 404.07-25.49Q405.58-25.49 406.93-24.91 408.27-24.34 409.27-23.34 410.27-22.34 410.85-21 411.42-19.65 411.42-18.14L411.42-18.14 411.42 0Z" opacity="1" transform="matrix(1,0,0,1,0,0)" fill="#89939e" class="slogan-text-1" data-fill-palette-color="secondary" id="text-1"></path></svg></g></svg></g></svg></g></svg></g><g><svg viewBox="0 0 229.10255783449395 229.10255783449395" height="229.10255783449395" width="229.10255783449395"><g><svg></svg></g><g id="icon-0"><svg viewBox="0 0 229.10255783449395 229.10255783449395" height="229.10255783449395" width="229.10255783449395"><g><path d="M0 114.551c0-63.265 51.286-114.551 114.551-114.551 63.265 0 114.551 51.286 114.552 114.551 0 63.265-51.286 114.551-114.552 114.552-63.265 0-114.551-51.286-114.551-114.552zM114.551 223.735c60.3 0 109.183-48.883 109.184-109.184 0-60.3-48.883-109.183-109.184-109.183-60.3 0-109.183 48.883-109.183 109.183 0 60.3 48.883 109.183 109.183 109.184z" data-fill-palette-color="accent" fill="#000000" stroke="transparent"></path><ellipse rx="113.4057661280745" ry="113.4057661280745" cx="114.55127891724698" cy="114.55127891724698" fill="#000000" stroke="transparent" stroke-width="0" fill-opacity="1" data-fill-palette-color="accent"></ellipse></g><g transform="matrix(1,0,0,1,46.63524386337127,71.73165678304514)"><svg viewBox="0 0 135.8320701077514 85.63924426840369" height="85.63924426840369" width="135.8320701077514"><g><svg xmlns="http://www.w3.org/2000/svg" xmlns:xlink="http://www.w3.org/1999/xlink" version="1.1" viewBox="2.0000000000000036 18.995947890338993 92.00000000000001 58.00405210966102" x="0" y="0" height="85.63924426840369" width="135.8320701077514" class="icon-cg-0" data-fill-palette-color="quaternary" id="cg-0"><path d="M52.736 77c-0.9 0-1.692-0.6-1.924-1.476l-8.4-30.996-8.864 17.384c-0.296 0.584-0.86 0.98-1.504 1.08-0.652 0.08-1.296-0.144-1.744-0.62l-8.676-9.36h-17.624c-1.104 0-2-0.896-2-2s0.896-2 2-2h18.492c0.556 0 1.088 0.232 1.468 0.64l7.324 7.9 9.916-19.456c0.376-0.736 1.14-1.18 1.988-1.08 0.824 0.084 1.508 0.668 1.724 1.464l7.572 27.92 9.52-45.812c0.192-0.916 0.992-1.58 1.924-1.584 0.968-0.092 1.752 0.616 1.976 1.528l6.752 27.652 6.584-3c0.256-0.116 0.54-0.18 0.828-0.18h11.932c1.1 0 2 0.896 2 2s-0.9 2-2 2h-11.508l-8.392 3.82c-0.54 0.248-1.164 0.236-1.696-0.02-0.54-0.26-0.928-0.752-1.076-1.328l-5.22-21.396-9.416 45.328c-0.188 0.916-0.972 1.576-1.9 1.592-0.02 0-0.04 0-0.056 0z" fill="#ffffff" data-fill-palette-color="quaternary"></path></svg></g></svg></g></svg></g></svg></g></svg></g><defs></defs></svg><rect width="395.52" height="138.82489997949352" fill="none" stroke="none" visibility="hidden"></rect></g></svg></g></svg>