<svg width="215" height="207" viewBox="0 0 215 207" fill="none" xmlns="http://www.w3.org/2000/svg">
<g clip-path="url(#clip0_10_281)">
<g filter="url(#filter0_d_10_281)">
<path d="M183.008 70.7131C184.203 57.0483 188.491 44.5036 196.037 33.0005L167.081 6.20001C157.935 13.4871 147.512 17.5253 135.712 18.2363C124.894 19.1415 114.642 17.2401 104.993 12.5199C95.0773 17.0831 84.8648 18.9968 74.2223 18.2363C63.3901 17.4047 53.0312 13.6128 44.3674 7.30775L15.3381 34.1C22.4804 45.7643 26.4579 57.97 27.2362 70.7131C27.606 76.5783 25.8 84.6631 21.7365 95.0997C19.8927 100.029 18.2814 105.035 16.9076 110.104C15.8928 114.274 15.2607 117.655 15.0457 120.197C14.8995 131.32 18.2707 141.364 25.1851 150.296C30.5902 156.815 39.5041 164.015 51.8795 171.889C65.4159 178.267 75.895 182.404 83.2351 184.169L89.3239 186.794C91.2374 187.637 93.2885 188.468 95.4256 189.369C100.048 191.931 103.286 194.705 104.993 197.569C107.092 194.465 110.407 191.766 114.81 189.369C117.45 188.321 120.068 187.223 122.662 186.074L127.259 184.173C128.828 183.458 130.879 182.631 133.373 181.718C136.459 180.587 139.561 179.497 142.678 178.448C149.829 176.109 155.037 173.889 158.343 171.889C170.349 164.019 179.125 156.93 184.711 150.602C191.87 141.641 195.353 131.547 195.194 120.206C194.769 115.122 192.442 106.995 188.22 95.9223C184.203 85.1301 182.428 76.756 183.008 70.7131Z" fill="#FFD700"/>
</g>
</g>
<defs>
<filter id="filter0_d_10_281" x="14.0412" y="6.20001" width="188.996" height="204.369" filterUnits="userSpaceOnUse" color-interpolation-filters="sRGB">
<feFlood flood-opacity="0" result="BackgroundImageFix"/>
<feColorMatrix in="SourceAlpha" type="matrix" values="0 0 0 0 0 0 0 0 0 0 0 0 0 0 0 0 0 0 127 0" result="hardAlpha"/>
<feOffset dx="3" dy="9"/>
<feGaussianBlur stdDeviation="2"/>
<feComposite in2="hardAlpha" operator="out"/>
<feColorMatrix type="matrix" values="0 0 0 0 0 0 0 0 0 0 0 0 0 0 0 0 0 0 0.25 0"/>
<feBlend mode="normal" in2="BackgroundImageFix" result="effect1_dropShadow_10_281"/>
<feBlend mode="normal" in="SourceGraphic" in2="effect1_dropShadow_10_281" result="shape"/>
</filter>
<clipPath id="clip0_10_281">
<rect width="215" height="206.667" fill="white"/>
</clipPath>
</defs>
</svg>
