<svg width="100" height="112" viewBox="0 0 100 112" fill="none" xmlns="http://www.w3.org/2000/svg">
<path d="M50.012 4.47998C25.16 4.47998 5 22.5433 5 44.8107C5 67.0781 25.16 85.12 50.012 85.12C74.864 85.12 95 67.0781 95 44.8107C95 22.5433 74.864 4.47998 50.012 4.47998ZM70.785 48.1698C69.913 49.0363 68.451 49.4377 66.399 49.4162H55.152V59.4935C55.152 61.3312 54.68 62.6205 53.714 63.4018C52.771 64.1831 51.521 64.5846 49.989 64.5846C48.456 64.5846 47.207 64.1831 46.24 63.4018C45.297 62.6205 44.849 61.3312 44.872 59.4935V49.4162H33.624C31.573 49.4162 30.111 48.9933 29.238 48.1483C28.366 47.3034 27.941 46.2049 27.941 44.8313C27.941 43.4578 28.365 42.3387 29.238 41.4722C30.11 40.6273 31.572 40.2044 33.624 40.2044H44.871V30.128C44.871 28.2903 45.343 26.9803 46.286 26.1981C47.206 25.4168 48.455 25.036 49.988 25.036C51.521 25.036 52.77 25.4159 53.713 26.1981C54.68 26.9803 55.151 28.2894 55.151 30.128V40.2053H66.398C68.449 40.2053 69.911 40.6282 70.784 41.4731C71.633 42.3396 72.081 43.4587 72.081 44.8322C72.081 46.2049 71.633 47.3249 70.785 48.1698Z" fill="#3E3636"/>
</svg>
