<svg width="24" height="24" viewBox="0 0 24 24" fill="none" xmlns="http://www.w3.org/2000/svg">
<mask id="path-1-inside-1_60_106" fill="white">
<path d="M3.00009 19H21.0001C21.1823 18.9994 21.361 18.9492 21.5168 18.8546C21.6726 18.7601 21.7996 18.6248 21.8843 18.4634C21.9689 18.3021 22.008 18.1206 21.9972 17.9387C21.9864 17.7568 21.9262 17.5813 21.8231 17.431L12.8231 4.431C12.4501 3.892 11.5521 3.892 11.1781 4.431L2.17809 17.431C2.07391 17.5809 2.01282 17.7566 2.00145 17.9388C1.99008 18.121 2.02887 18.3029 2.1136 18.4646C2.19833 18.6263 2.32576 18.7618 2.48205 18.8561C2.63834 18.9505 2.81751 19.0003 3.00009 19Z"/>
</mask>
<path d="M3.00009 19L3.00009 16L2.99536 16L3.00009 19ZM21.0001 19L21.0001 22L21.0095 22L21.0001 19ZM21.8231 17.431L24.2966 15.7334L24.2897 15.7234L21.8231 17.431ZM12.8231 4.431L10.3562 6.13815L10.3565 6.13863L12.8231 4.431ZM11.1781 4.431L8.71332 2.72075L8.71151 2.72337L11.1781 4.431ZM2.17809 17.431L4.64183 19.1427L4.64466 19.1386L2.17809 17.431ZM3.00009 22H21.0001V16H3.00009V22ZM21.0095 22C21.7374 21.9977 22.4508 21.7969 23.0731 21.4193L19.9604 16.2899C20.2711 16.1014 20.6273 16.0012 20.9907 16L21.0095 22ZM23.0731 21.4193C23.6954 21.0417 24.2029 20.5016 24.541 19.857L19.2276 17.0699C19.3964 16.7481 19.6498 16.4784 19.9604 16.2899L23.0731 21.4193ZM24.541 19.857C24.8791 19.2124 25.035 18.4878 24.9919 17.7612L19.0024 18.1162C18.9809 17.7535 19.0588 17.3917 19.2276 17.0699L24.541 19.857ZM24.9919 17.7612C24.9489 17.0346 24.7085 16.3335 24.2966 15.7334L19.3496 19.1286C19.144 18.829 19.0239 18.479 19.0024 18.1162L24.9919 17.7612ZM24.2897 15.7234L15.2897 2.72337L10.3565 6.13863L19.3565 19.1386L24.2897 15.7234ZM15.29 2.72384C14.4419 1.49834 13.111 1.02675 12.001 1.02675C10.8908 1.02675 9.56162 1.49821 8.71332 2.72075L13.6429 6.14124C13.1686 6.82479 12.4754 7.02675 12.001 7.02675C11.5267 7.02675 10.8313 6.82466 10.3562 6.13815L15.29 2.72384ZM8.71151 2.72337L-0.288491 15.7234L4.64466 19.1386L13.6447 6.13863L8.71151 2.72337ZM-0.285658 15.7193C-0.702672 16.3195 -0.947218 17.0225 -0.992728 17.752L4.99563 18.1256C4.97286 18.4906 4.85049 18.8424 4.64183 19.1427L-0.285658 15.7193ZM-0.992728 17.752C-1.03824 18.4814 -0.882971 19.2094 -0.543796 19.8568L4.77099 17.0724C4.94071 17.3963 5.0184 17.7606 4.99563 18.1256L-0.992728 17.752ZM-0.543796 19.8568C-0.204625 20.5042 0.305482 21.0463 0.931112 21.4241L4.03299 16.2881C4.34604 16.4772 4.60128 16.7485 4.77099 17.0724L-0.543796 19.8568ZM0.931112 21.4241C1.55674 21.802 2.27395 22.0011 3.00481 22L2.99536 16C3.36106 15.9994 3.71993 16.0991 4.03299 16.2881L0.931112 21.4241Z" fill="black" mask="url(#path-1-inside-1_60_106)"/>
</svg>
