<svg width="26" height="26" viewBox="0 0 26 26" fill="none" xmlns="http://www.w3.org/2000/svg">
<mask id="path-1-inside-1_60_108" fill="white">
<path d="M21.862 5.82617L3.86544 6.17647C3.68325 6.18058 3.50562 6.23431 3.35169 6.33187C3.19776 6.42943 3.07335 6.56712 2.99186 6.73012C2.91036 6.89313 2.87486 7.07527 2.88918 7.25695C2.9035 7.43863 2.9671 7.61296 3.07313 7.76118L12.3244 20.5836C12.7078 21.1152 13.6057 21.0977 13.9691 20.5516L22.7144 7.37888C22.8157 7.22694 22.8733 7.05016 22.8811 6.86774C22.889 6.68533 22.8466 6.50426 22.7588 6.34421C22.6709 6.18416 22.5409 6.05125 22.3828 5.95992C22.2247 5.86859 22.0446 5.82233 21.862 5.82617Z"/>
</mask>
<path d="M21.862 5.82617L3.86544 6.17647C3.68325 6.18058 3.50562 6.23431 3.35169 6.33187C3.19776 6.42943 3.07335 6.56712 2.99186 6.73012C2.91036 6.89313 2.87486 7.07527 2.88918 7.25695C2.9035 7.43863 2.9671 7.61296 3.07313 7.76118L12.3244 20.5836C12.7078 21.1152 13.6057 21.0977 13.9691 20.5516L22.7144 7.37888C22.8157 7.22694 22.8733 7.05016 22.8811 6.86774C22.889 6.68533 22.8466 6.50426 22.7588 6.34421C22.6709 6.18416 22.5409 6.05125 22.3828 5.95992C22.2247 5.86859 22.0446 5.82233 21.862 5.82617Z" fill="white"/>
<path d="M21.862 5.82617L21.9204 8.82561L21.9251 8.82551L21.862 5.82617ZM3.86544 6.17647L3.80706 3.17702L3.79766 3.17723L3.86544 6.17647ZM3.07313 7.76118L0.633141 9.50663L0.640255 9.51649L3.07313 7.76118ZM12.3244 20.5836L14.7576 18.8287L14.7573 18.8283L12.3244 20.5836ZM13.9691 20.5516L16.4667 22.2135L16.4684 22.2109L13.9691 20.5516ZM22.7144 7.37888L20.2178 5.71543L20.2151 5.71957L22.7144 7.37888ZM21.8037 2.82674L3.80706 3.17703L3.92382 9.1759L21.9204 8.8256L21.8037 2.82674ZM3.79766 3.17723C3.06996 3.19368 2.36053 3.40828 1.74574 3.79792L4.95765 8.86582C4.65072 9.06035 4.29654 9.16749 3.93323 9.1757L3.79766 3.17723ZM1.74574 3.79792C1.13094 4.18756 0.634045 4.7375 0.308542 5.38855L5.67517 8.0717C5.51266 8.39673 5.26459 8.67129 4.95765 8.86582L1.74574 3.79792ZM0.308542 5.38855C-0.0169586 6.03959 -0.15874 6.76708 -0.10154 7.4927L5.8799 7.0212C5.90846 7.38347 5.83768 7.74667 5.67517 8.0717L0.308542 5.38855ZM-0.10154 7.4927C-0.0443406 8.21833 0.209672 8.91462 0.633161 9.50662L5.5131 6.01575C5.72453 6.31131 5.85135 6.65893 5.8799 7.0212L-0.10154 7.4927ZM0.640255 9.51649L9.89154 22.3389L14.7573 18.8283L5.50601 6.00588L0.640255 9.51649ZM9.8912 22.3384C10.763 23.5472 12.1028 23.9928 13.2126 23.9712C14.3226 23.9496 15.6423 23.4523 16.4667 22.2135L11.4715 18.8896C11.9324 18.197 12.6215 17.9816 13.0959 17.9723C13.5701 17.9631 14.2693 18.1516 14.7576 18.8287L9.8912 22.3384ZM16.4684 22.2109L25.2138 9.03818L20.2151 5.71957L11.4698 18.8923L16.4684 22.2109ZM25.211 9.04232C25.6163 8.4341 25.8471 7.72644 25.8784 6.99624L19.8839 6.73924C19.8995 6.37387 20.015 6.01978 20.2178 5.71543L25.211 9.04232ZM25.8784 6.99624C25.9097 6.26604 25.7403 5.54123 25.3886 4.90055L20.129 7.78787C19.953 7.46729 19.8682 7.10461 19.8839 6.73924L25.8784 6.99624ZM25.3886 4.90055C25.0369 4.25988 24.5163 3.72783 23.8834 3.36223L20.8821 8.55761C20.5654 8.37467 20.305 8.10845 20.129 7.78787L25.3886 4.90055ZM23.8834 3.36223C23.2506 2.99663 22.5296 2.81146 21.7989 2.82684L21.9251 8.82551C21.5595 8.8332 21.1988 8.74055 20.8821 8.55761L23.8834 3.36223Z" fill="black" mask="url(#path-1-inside-1_60_108)"/>
</svg>
