<svg width="20" height="15" viewBox="0 0 20 15" fill="none" xmlns="http://www.w3.org/2000/svg">
<path d="M1.00009 14.5L0.999298 14.5C0.908098 14.5001 0.818604 14.4753 0.740539 14.4281C0.662475 14.381 0.598822 14.3134 0.556499 14.2326C0.514176 14.1518 0.494802 14.0609 0.50048 13.9699C0.506159 13.8789 0.536674 13.7912 0.58871 13.7163L0.589181 13.7156L9.58888 0.716039C9.66566 0.60538 9.81514 0.526749 10.001 0.526749C10.1868 0.526749 10.3357 0.605358 10.4119 0.715524L10.412 0.715604L19.4108 13.7139C19.411 13.7142 19.4111 13.7144 19.4113 13.7146C19.4627 13.7897 19.4927 13.8774 19.4981 13.9683C19.5035 14.0594 19.4839 14.1503 19.4415 14.2312C19.3991 14.312 19.3354 14.3798 19.2574 14.4272C19.1795 14.4744 19.0903 14.4996 18.9993 14.5L1.00009 14.5Z" fill="white" stroke="black"/>
</svg>
