<svg width="26" height="26" viewBox="0 0 26 26" fill="none" xmlns="http://www.w3.org/2000/svg">
<path d="M21.8718 6.32608L21.8726 6.32606C21.9637 6.32414 22.0537 6.34725 22.1327 6.39287C22.2116 6.43849 22.2766 6.50488 22.3205 6.58482C22.3644 6.66477 22.3855 6.75521 22.3816 6.84633C22.3777 6.93744 22.3489 7.02574 22.2983 7.10164L22.2979 7.10233L13.5528 20.2746C13.4782 20.3867 13.3303 20.4682 13.1445 20.4718C12.9587 20.4755 12.8083 20.3998 12.73 20.2911L12.7299 20.291L3.4798 7.47028C3.47964 7.47006 3.47949 7.46985 3.47934 7.46964C3.42649 7.39552 3.39479 7.30842 3.38764 7.21766C3.38046 7.12664 3.39825 7.03538 3.43908 6.95372C3.4799 6.87205 3.54223 6.80307 3.61935 6.7542C3.69627 6.70545 3.78498 6.67855 3.876 6.67635L21.8718 6.32608Z" fill="white" stroke="black"/>
</svg>
