<svg width="39" height="28" viewBox="0 0 39 28" fill="none" xmlns="http://www.w3.org/2000/svg">
<path fill-rule="evenodd" clip-rule="evenodd" d="M3.10101 18.9743C-1.89379 9.91414 7.12484 0 20.3606 0H21.0738C23.4279 0 25.759 0.342709 27.9339 1.00856C30.1088 1.67441 32.0849 2.65036 33.7495 3.88069C35.4141 5.11102 36.7346 6.57163 37.6355 8.17914C38.5363 9.78664 39 11.5096 39 13.2495C39 17.1616 36.8974 20.9134 33.1547 23.6797C29.4121 26.4459 24.3359 28 19.043 28H1.66789C1.32266 28.0002 0.985849 27.9212 0.70401 27.7738C0.42217 27.6265 0.209214 27.418 0.0945676 27.1773C-0.0200784 26.9367 -0.0307541 26.6756 0.064016 26.4302C0.158786 26.1849 0.354323 25.9673 0.623607 25.8076L5.00294 23.208C5.09658 23.1525 5.16341 23.0762 5.19345 22.9903C5.22349 22.9045 5.21511 22.8138 5.16958 22.7317L3.10101 18.9743ZM20.3606 2.46334C9.48893 2.46334 2.08339 10.6039 6.18498 18.0448L8.25578 21.8039C8.57129 22.3769 8.6282 23.0099 8.41804 23.6087C8.20787 24.2076 7.74187 24.7403 7.08929 25.1277L6.40273 25.5367H19.043C23.452 25.5367 27.6804 24.2421 30.7981 21.9378C33.9157 19.6335 35.6672 16.5083 35.6672 13.2495C35.6672 10.3888 34.1297 7.64533 31.3929 5.62254C28.6561 3.59974 24.9442 2.46334 21.0738 2.46334H20.3606Z" fill="#406AD7"/>
</svg>
