<svg width="432" height="152" viewBox="0 0 432 152" fill="none" xmlns="http://www.w3.org/2000/svg">
<g clip-path="url(#clip0_4_10)">
<g clip-path="url(#clip1_4_10)">
<g clip-path="url(#clip2_4_10)">
<g clip-path="url(#clip3_4_10)">
<g clip-path="url(#clip4_4_10)">
<g clip-path="url(#clip5_4_10)">
<g clip-path="url(#clip6_4_10)">
<path d="M201.446 44.7485V71.1682C201.446 72.805 201.215 74.2888 200.752 75.6196C200.29 76.9575 199.482 78.0961 198.329 79.0355C197.169 79.9819 195.575 80.722 193.547 81.2558C191.519 81.7895 188.939 82.0564 185.808 82.0564C182.712 82.0564 180.161 81.7895 178.154 81.2558C176.14 80.722 174.557 79.9819 173.404 79.0355C172.244 78.0961 171.443 76.9575 171.002 75.6196C170.554 74.2888 170.329 72.805 170.329 71.1682V62.5218C170.329 61.8457 170.482 61.3547 170.788 61.0487C171.087 60.7498 171.575 60.6004 172.251 60.6004H179.99C180.666 60.6004 181.157 60.7498 181.463 61.0487C181.762 61.3547 181.911 61.8457 181.911 62.5218V69.0333C181.911 69.745 182.136 70.3392 182.584 70.816C183.025 71.2999 184.064 71.5419 185.701 71.5419C187.231 71.5419 188.202 71.2999 188.615 70.816C189.021 70.3392 189.224 69.745 189.224 69.0333V44.7485C189.224 44.0725 189.377 43.5814 189.683 43.2754C189.981 42.9765 190.469 42.8271 191.145 42.8271H199.525C200.201 42.8271 200.692 42.9765 200.998 43.2754C201.297 43.5814 201.446 44.0725 201.446 44.7485ZM222.475 54.0355L219.966 62.1482H228.346L225.838 54.0355C225.695 53.7152 225.542 53.4839 225.378 53.3416C225.222 53.1993 225.037 53.1281 224.823 53.1281H223.489C223.276 53.1281 223.087 53.1993 222.923 53.3416C222.767 53.4839 222.617 53.7152 222.475 54.0355ZM219.433 71.8621V79.3343C219.433 80.0104 219.28 80.4979 218.974 80.7968C218.675 81.1028 218.187 81.2558 217.511 81.2558H209.665C208.989 81.2558 208.498 81.1028 208.192 80.7968C207.893 80.4979 207.744 80.0104 207.744 79.3343V65.2438C207.744 64.1764 207.911 62.9488 208.246 61.5611C208.587 60.1734 209.114 58.5544 209.826 56.7041L214.469 44.5884C214.683 43.9835 215.01 43.5387 215.451 43.2541C215.899 42.9694 216.479 42.8271 217.191 42.8271H231.548C232.225 42.8271 232.783 42.9694 233.224 43.2541C233.673 43.5387 234.004 43.9835 234.217 44.5884L238.861 56.7041C239.572 58.5544 240.095 60.1734 240.43 61.5611C240.771 62.9488 240.942 64.1764 240.942 65.2438V79.3343C240.942 80.0104 240.789 80.4979 240.483 80.7968C240.184 81.1028 239.697 81.2558 239.021 81.2558H230.961C230.25 81.2558 229.723 81.1028 229.381 80.7968C229.047 80.4979 228.88 80.0104 228.88 79.3343V71.8621H219.433ZM257.434 81.2558H249.428C248.752 81.2558 248.261 81.1028 247.955 80.7968C247.656 80.4979 247.507 80.0104 247.507 79.3343V44.7485C247.507 44.0725 247.656 43.5814 247.955 43.2754C248.261 42.9765 248.752 42.8271 249.428 42.8271H254.979C255.655 42.8271 256.232 42.9338 256.709 43.1473C257.192 43.3608 257.666 43.7344 258.128 44.2682L268.483 56.117V44.7485C268.483 44.0725 268.632 43.5814 268.931 43.2754C269.237 42.9765 269.728 42.8271 270.404 42.8271H278.41C279.086 42.8271 279.574 42.9765 279.873 43.2754C280.179 43.5814 280.332 44.0725 280.332 44.7485V79.3343C280.332 80.0104 280.179 80.4979 279.873 80.7968C279.574 81.1028 279.086 81.2558 278.41 81.2558H270.404C269.728 81.2558 269.237 81.1028 268.931 80.7968C268.632 80.4979 268.483 80.0104 268.483 79.3343V72.7694L259.356 61.7212V79.3343C259.356 80.0104 259.203 80.4979 258.897 80.7968C258.598 81.1028 258.11 81.2558 257.434 81.2558ZM310.423 81.2558H296.546C295.87 81.2558 295.312 81.1312 294.87 80.8822C294.422 80.6331 294.073 80.1705 293.824 79.4945L288.594 66.418C288.273 65.6352 288.007 64.9485 287.793 64.3578C287.58 63.7743 287.402 63.2156 287.259 62.6819C287.117 62.1482 287.021 61.586 286.971 60.9953C286.914 60.4118 286.886 59.693 286.886 58.839V44.7485C286.886 44.0725 287.039 43.5814 287.345 43.2754C287.644 42.9765 288.131 42.8271 288.807 42.8271H297.294C297.97 42.8271 298.486 42.9765 298.841 43.2754C299.197 43.5814 299.375 44.0725 299.375 44.7485V59.4795C299.375 59.8353 299.411 60.1912 299.482 60.547C299.553 60.9028 299.66 61.2764 299.802 61.6678L302.311 69.1401C302.417 69.4959 302.542 69.7343 302.684 69.8553C302.827 69.9834 303.04 70.0474 303.325 70.0474H303.912C304.196 70.0474 304.41 69.9834 304.552 69.8553C304.695 69.7343 304.819 69.4959 304.926 69.1401L307.434 61.6144C307.577 61.223 307.684 60.8494 307.755 60.4936C307.826 60.1378 307.861 59.782 307.861 59.4261V44.7485C307.861 44.0725 308.014 43.5814 308.32 43.2754C308.619 42.9765 309.107 42.8271 309.783 42.8271H318.162C318.838 42.8271 319.33 42.9765 319.636 43.2754C319.934 43.5814 320.084 44.0725 320.084 44.7485V58.839C320.084 59.693 320.059 60.4118 320.009 60.9953C319.952 61.586 319.853 62.1482 319.71 62.6819C319.568 63.2156 319.39 63.7743 319.177 64.3578C318.963 64.9485 318.696 65.6352 318.376 66.418L313.145 79.4945C312.896 80.1705 312.551 80.6331 312.11 80.8822C311.662 81.1312 311.099 81.2558 310.423 81.2558ZM340.579 54.0355L338.071 62.1482H346.45L343.942 54.0355C343.799 53.7152 343.65 53.4839 343.493 53.3416C343.33 53.1993 343.141 53.1281 342.928 53.1281H341.593C341.38 53.1281 341.195 53.1993 341.038 53.3416C340.875 53.4839 340.722 53.7152 340.579 54.0355ZM337.537 71.8621V79.3343C337.537 80.0104 337.387 80.4979 337.089 80.7968C336.783 81.1028 336.292 81.2558 335.615 81.2558H327.77C327.094 81.2558 326.606 81.1028 326.307 80.7968C326.001 80.4979 325.848 80.0104 325.848 79.3343V65.2438C325.848 64.1764 326.019 62.9488 326.361 61.5611C326.695 60.1734 327.218 58.5544 327.93 56.7041L332.573 44.5884C332.787 43.9835 333.118 43.5387 333.566 43.2541C334.007 42.9694 334.584 42.8271 335.295 42.8271H349.653C350.329 42.8271 350.891 42.9694 351.339 43.2541C351.78 43.5387 352.108 43.9835 352.321 44.5884L356.965 56.7041C357.676 58.5544 358.203 60.1734 358.545 61.5611C358.879 62.9488 359.046 64.1764 359.046 65.2438V79.3343C359.046 80.0104 358.897 80.4979 358.598 80.7968C358.292 81.1028 357.801 81.2558 357.125 81.2558H349.066C348.354 81.2558 347.831 81.1028 347.496 80.7968C347.155 80.4979 346.984 80.0104 346.984 79.3343V71.8621H337.537ZM375.539 81.2558H367.533C366.857 81.2558 366.366 81.1028 366.06 80.7968C365.761 80.4979 365.611 80.0104 365.611 79.3343V44.7485C365.611 44.0725 365.761 43.5814 366.06 43.2754C366.366 42.9765 366.857 42.8271 367.533 42.8271H373.083C373.76 42.8271 374.336 42.9338 374.813 43.1473C375.297 43.3608 375.77 43.7344 376.232 44.2682L386.587 56.117V44.7485C386.587 44.0725 386.736 43.5814 387.035 43.2754C387.341 42.9765 387.832 42.8271 388.508 42.8271H396.514C397.19 42.8271 397.678 42.9765 397.977 43.2754C398.283 43.5814 398.436 44.0725 398.436 44.7485V79.3343C398.436 80.0104 398.283 80.4979 397.977 80.7968C397.678 81.1028 397.19 81.2558 396.514 81.2558H388.508C387.832 81.2558 387.341 81.1028 387.035 80.7968C386.736 80.4979 386.587 80.0104 386.587 79.3343V72.7694L377.46 61.7212V79.3343C377.46 80.0104 377.307 80.4979 377.001 80.7968C376.702 81.1028 376.215 81.2558 375.539 81.2558ZM429.606 81.2558H406.869C406.193 81.2558 405.702 81.1028 405.396 80.7968C405.097 80.4979 404.947 80.0104 404.947 79.3343V72.9829C404.947 72.3069 405.097 71.8158 405.396 71.5098C405.702 71.2109 406.193 71.0615 406.869 71.0615H412.153V53.1281H406.869C406.193 53.1281 405.702 52.9751 405.396 52.6691C405.097 52.3702 404.947 51.8827 404.947 51.2067V44.7485C404.947 44.0725 405.097 43.5814 405.396 43.2754C405.702 42.9765 406.193 42.8271 406.869 42.8271H429.606C430.282 42.8271 430.769 42.9765 431.068 43.2754C431.374 43.5814 431.527 44.0725 431.527 44.7485V51.2067C431.527 51.8827 431.374 52.3702 431.068 52.6691C430.769 52.9751 430.282 53.1281 429.606 53.1281H424.428V71.0615H429.606C430.282 71.0615 430.769 71.2109 431.068 71.5098C431.374 71.8158 431.527 72.3069 431.527 72.9829V79.3343C431.527 80.0104 431.374 80.4979 431.068 80.7968C430.769 81.1028 430.282 81.2558 429.606 81.2558Z" fill="black"/>
</g>
</g>
<g clip-path="url(#clip7_4_10)">
<g clip-path="url(#clip8_4_10)">
<path d="M227.775 95.3069L222.81 109.057H221.668L223.411 104.281L220.23 95.3069H221.408L223.969 102.75L224.008 103.256L224.048 102.75L226.597 95.3069H227.775ZM235.512 102.432C235.512 102.827 235.438 103.201 235.288 103.555C235.137 103.906 234.93 104.212 234.668 104.474C234.406 104.736 234.1 104.941 233.749 105.091C233.398 105.242 233.024 105.318 232.626 105.318H231.84C231.445 105.318 231.07 105.242 230.717 105.091C230.366 104.941 230.059 104.736 229.798 104.474C229.536 104.212 229.33 103.906 229.181 103.555C229.029 103.201 228.953 102.827 228.953 102.432V98.0012C228.953 97.6058 229.029 97.2314 229.181 96.8779C229.33 96.5271 229.536 96.2207 229.798 95.9589C230.059 95.697 230.366 95.4915 230.717 95.3422C231.07 95.1904 231.445 95.1144 231.84 95.1144H232.626C233.024 95.1144 233.398 95.1904 233.749 95.3422C234.1 95.4915 234.406 95.697 234.668 95.9589C234.93 96.2207 235.137 96.5271 235.288 96.8779C235.438 97.2314 235.512 97.6058 235.512 98.0012V102.432ZM234.334 102.498V97.9344C234.334 97.6988 234.29 97.4762 234.2 97.2667C234.111 97.0599 233.99 96.8792 233.835 96.7247C233.681 96.5729 233.5 96.4524 233.293 96.3634C233.086 96.2718 232.864 96.2259 232.626 96.2259H231.84C231.604 96.2259 231.382 96.2718 231.172 96.3634C230.965 96.4524 230.786 96.5729 230.634 96.7247C230.48 96.8792 230.358 97.0599 230.269 97.2667C230.18 97.4762 230.135 97.6988 230.135 97.9344V102.498C230.135 102.734 230.18 102.957 230.269 103.166C230.358 103.373 230.48 103.554 230.634 103.708C230.786 103.86 230.965 103.98 231.172 104.069C231.382 104.161 231.604 104.207 231.84 104.207H232.626C232.864 104.207 233.086 104.161 233.293 104.069C233.5 103.98 233.681 103.86 233.835 103.708C233.99 103.554 234.111 103.373 234.2 103.166C234.29 102.957 234.334 102.734 234.334 102.498ZM244.428 105.126H244.035L243.383 104.128C243.116 104.492 242.781 104.782 242.378 104.996C241.974 105.211 241.533 105.318 241.054 105.318H240.756C240.36 105.318 239.987 105.242 239.636 105.091C239.283 104.941 238.975 104.736 238.713 104.474C238.451 104.212 238.246 103.906 238.097 103.555C237.947 103.201 237.873 102.827 237.873 102.432V95.3069H239.051V102.498C239.051 102.734 239.096 102.957 239.185 103.166C239.274 103.373 239.395 103.554 239.55 103.708C239.702 103.86 239.882 103.98 240.092 104.069C240.299 104.161 240.52 104.207 240.756 104.207H241.545C241.781 104.207 242.002 104.161 242.209 104.069C242.418 103.98 242.599 103.86 242.751 103.708C242.905 103.554 243.027 103.373 243.116 103.166C243.205 102.957 243.25 102.734 243.25 102.498V95.3069H244.428V105.126ZM250.853 96.4302H249.675C249.437 96.4302 249.214 96.4747 249.007 96.5637C248.801 96.6527 248.62 96.7745 248.465 96.929C248.311 97.0808 248.189 97.2615 248.1 97.471C248.011 97.6778 247.967 97.8991 247.967 98.1347V105.126H246.788V95.3069H247.181L247.821 96.3045C248.091 95.9405 248.429 95.6512 248.835 95.4365C249.241 95.2218 249.683 95.1144 250.162 95.1144H250.853V96.4302ZM263.5 95.3069L260.017 105.126H259.431L255.951 95.3069H257.134L259.691 102.75L259.73 103.256L259.769 102.75L262.318 95.3069H263.5ZM271.426 102.432C271.426 102.827 271.352 103.201 271.202 103.555C271.053 103.906 270.847 104.212 270.586 104.474C270.321 104.736 270.014 104.941 269.663 105.091C269.312 105.242 268.939 105.318 268.543 105.318H267.754C267.358 105.318 266.985 105.242 266.635 105.091C266.281 104.941 265.973 104.736 265.712 104.474C265.45 104.212 265.244 103.906 265.095 103.555C264.946 103.201 264.871 102.827 264.871 102.432V98.0012C264.871 97.6058 264.946 97.2314 265.095 96.8779C265.244 96.5271 265.45 96.2207 265.712 95.9589C265.973 95.697 266.281 95.4915 266.635 95.3422C266.985 95.1904 267.358 95.1144 267.754 95.1144H268.543C268.939 95.1144 269.312 95.1904 269.663 95.3422C270.014 95.4915 270.321 95.697 270.586 95.9589C270.847 96.2207 271.053 96.5271 271.202 96.8779C271.352 97.2314 271.426 97.6058 271.426 98.0012V102.432ZM270.248 102.498V97.9344C270.248 97.6988 270.203 97.4762 270.114 97.2667C270.025 97.0599 269.904 96.8792 269.749 96.7247C269.597 96.5729 269.417 96.4524 269.207 96.3634C269 96.2718 268.779 96.2259 268.543 96.2259H267.754C267.518 96.2259 267.297 96.2718 267.09 96.3634C266.881 96.4524 266.7 96.5729 266.548 96.7247C266.394 96.8792 266.272 97.0599 266.183 97.2667C266.094 97.4762 266.049 97.6988 266.049 97.9344V102.498C266.049 102.734 266.094 102.957 266.183 103.166C266.272 103.373 266.394 103.554 266.548 103.708C266.7 103.86 266.881 103.98 267.09 104.069C267.297 104.161 267.518 104.207 267.754 104.207H268.543C268.779 104.207 269 104.161 269.207 104.069C269.417 103.98 269.597 103.86 269.749 103.708C269.904 103.554 270.025 103.373 270.114 103.166C270.203 102.957 270.248 102.734 270.248 102.498ZM275.456 92.9464H274.081V91.3754H275.456V92.9464ZM275.358 105.126H274.179V95.3069H275.358V105.126ZM284.67 102.432C284.67 102.827 284.594 103.201 284.442 103.555C284.293 103.906 284.087 104.212 283.826 104.474C283.564 104.736 283.256 104.941 282.903 105.091C282.552 105.242 282.179 105.318 281.783 105.318H280.994C280.598 105.318 280.225 105.242 279.874 105.091C279.524 104.941 279.216 104.736 278.951 104.474C278.69 104.212 278.484 103.906 278.335 103.555C278.186 103.201 278.111 102.827 278.111 102.432V98.0012C278.111 97.6058 278.186 97.2314 278.335 96.8779C278.484 96.5271 278.69 96.2207 278.951 95.9589C279.216 95.697 279.524 95.4915 279.874 95.3422C280.225 95.1904 280.598 95.1144 280.994 95.1144H281.783C282.179 95.1144 282.552 95.1904 282.903 95.3422C283.256 95.4915 283.564 95.697 283.826 95.9589C284.087 96.2207 284.293 96.5271 284.442 96.8779C284.594 97.2314 284.67 97.6058 284.67 98.0012V98.394L283.488 98.5864V97.9344C283.488 97.6988 283.443 97.4762 283.354 97.2667C283.265 97.0599 283.143 96.8792 282.989 96.7247C282.837 96.5729 282.656 96.4524 282.447 96.3634C282.24 96.2718 282.019 96.2259 281.783 96.2259H280.994C280.758 96.2259 280.537 96.2718 280.33 96.3634C280.121 96.4524 279.94 96.5729 279.788 96.7247C279.634 96.8792 279.512 97.0599 279.423 97.2667C279.334 97.4762 279.289 97.6988 279.289 97.9344V102.498C279.289 102.734 279.334 102.957 279.423 103.166C279.512 103.373 279.634 103.554 279.788 103.708C279.94 103.86 280.121 103.98 280.33 104.069C280.537 104.161 280.758 104.207 280.994 104.207H281.783C282.019 104.207 282.24 104.161 282.447 104.069C282.656 103.98 282.837 103.86 282.989 103.708C283.143 103.554 283.265 103.373 283.354 103.166C283.443 102.957 283.488 102.734 283.488 102.498V101.846L284.67 102.039V102.432ZM293.586 102.432C293.586 102.827 293.51 103.201 293.358 103.555C293.209 103.906 293.003 104.212 292.741 104.474C292.479 104.736 292.173 104.941 291.822 105.091C291.469 105.242 291.094 105.318 290.699 105.318H289.913C289.515 105.318 289.141 105.242 288.79 105.091C288.439 104.941 288.133 104.736 287.871 104.474C287.609 104.212 287.402 103.906 287.25 103.555C287.101 103.201 287.027 102.827 287.027 102.432V98.0012C287.027 97.6058 287.101 97.2314 287.25 96.8779C287.402 96.5271 287.609 96.2207 287.871 95.9589C288.133 95.697 288.439 95.4915 288.79 95.3422C289.141 95.1904 289.515 95.1144 289.913 95.1144H290.699C291.094 95.1144 291.469 95.1904 291.822 95.3422C292.173 95.4915 292.479 95.697 292.741 95.9589C293.003 96.2207 293.209 96.5271 293.358 96.8779C293.51 97.2314 293.586 97.6058 293.586 98.0012V100.311H288.205V102.498C288.205 102.734 288.249 102.957 288.338 103.166C288.43 103.373 288.552 103.554 288.704 103.708C288.858 103.86 289.039 103.98 289.246 104.069C289.452 104.161 289.675 104.207 289.913 104.207H290.699C290.934 104.207 291.157 104.161 291.367 104.069C291.573 103.98 291.754 103.86 291.909 103.708C292.06 103.554 292.181 103.373 292.27 103.166C292.359 102.957 292.403 102.734 292.403 102.498V101.846L293.586 102.039V102.432ZM292.403 99.3916V97.9344C292.403 97.6988 292.359 97.4762 292.27 97.2667C292.181 97.0599 292.06 96.8792 291.909 96.7247C291.754 96.5729 291.573 96.4524 291.367 96.3634C291.157 96.2718 290.934 96.2259 290.699 96.2259H289.913C289.675 96.2259 289.452 96.2718 289.246 96.3634C289.039 96.4524 288.858 96.5729 288.704 96.7247C288.552 96.8792 288.43 97.0599 288.338 97.2667C288.249 97.4762 288.205 97.6988 288.205 97.9344V99.3916H292.403ZM302.128 103.649L301.15 107.879H300.651V103.649H302.128ZM315.749 102.432C315.749 102.827 315.674 103.201 315.525 103.555C315.376 103.906 315.169 104.212 314.905 104.474C314.643 104.736 314.336 104.941 313.985 105.091C313.635 105.242 313.26 105.318 312.862 105.318H312.077C311.681 105.318 311.308 105.242 310.957 105.091C310.604 104.941 310.296 104.736 310.034 104.474C309.773 104.212 309.567 103.906 309.418 103.555C309.266 103.201 309.19 102.827 309.19 102.432V98.0012C309.19 97.6058 309.266 97.2314 309.418 96.8779C309.567 96.5271 309.773 96.2207 310.034 95.9589C310.296 95.697 310.604 95.4915 310.957 95.3422C311.308 95.1904 311.681 95.1144 312.077 95.1144H312.862C313.26 95.1144 313.635 95.1904 313.985 95.3422C314.336 95.4915 314.643 95.697 314.905 95.9589C315.169 96.2207 315.376 96.5271 315.525 96.8779C315.674 97.2314 315.749 97.6058 315.749 98.0012V102.432ZM314.571 102.498V97.9344C314.571 97.6988 314.526 97.4762 314.437 97.2667C314.348 97.0599 314.226 96.8792 314.072 96.7247C313.917 96.5729 313.737 96.4524 313.53 96.3634C313.323 96.2718 313.1 96.2259 312.862 96.2259H312.077C311.841 96.2259 311.62 96.2718 311.413 96.3634C311.203 96.4524 311.023 96.5729 310.871 96.7247C310.716 96.8792 310.595 97.0599 310.506 97.2667C310.417 97.4762 310.372 97.6988 310.372 97.9344V102.498C310.372 102.734 310.417 102.957 310.506 103.166C310.595 103.373 310.716 103.554 310.871 103.708C311.023 103.86 311.203 103.98 311.413 104.069C311.62 104.161 311.841 104.207 312.077 104.207H312.862C313.1 104.207 313.323 104.161 313.53 104.069C313.737 103.98 313.917 103.86 314.072 103.708C314.226 103.554 314.348 103.373 314.437 103.166C314.526 102.957 314.571 102.734 314.571 102.498ZM324.669 105.126H324.272L323.62 104.128C323.353 104.492 323.018 104.782 322.614 104.996C322.211 105.211 321.77 105.318 321.291 105.318H320.996C320.598 105.318 320.224 105.242 319.873 105.091C319.522 104.941 319.214 104.736 318.95 104.474C318.688 104.212 318.483 103.906 318.333 103.555C318.184 103.201 318.109 102.827 318.109 102.432V95.3069H319.288V102.498C319.288 102.734 319.332 102.957 319.421 103.166C319.51 103.373 319.632 103.554 319.787 103.708C319.938 103.86 320.119 103.98 320.329 104.069C320.535 104.161 320.758 104.207 320.996 104.207H321.782C322.017 104.207 322.239 104.161 322.446 104.069C322.655 103.98 322.836 103.86 322.988 103.708C323.142 103.554 323.264 103.373 323.353 103.166C323.442 102.957 323.486 102.734 323.486 102.498V95.3069H324.669V105.126ZM331.09 96.4302H329.912C329.674 96.4302 329.451 96.4747 329.244 96.5637C329.037 96.6527 328.857 96.7745 328.702 96.929C328.55 97.0808 328.429 97.2615 328.337 97.471C328.248 97.6778 328.203 97.8991 328.203 98.1347V105.126H327.025V95.3069H327.418L328.062 96.3045C328.329 95.9405 328.666 95.6512 329.071 95.4365C329.477 95.2218 329.92 95.1144 330.399 95.1144H331.09V96.4302ZM343.737 105.126H343.344L342.692 104.148C342.423 104.499 342.086 104.782 341.683 104.996C341.282 105.211 340.841 105.318 340.359 105.318H340.065C339.667 105.318 339.292 105.242 338.941 105.091C338.591 104.941 338.284 104.736 338.022 104.474C337.76 104.212 337.554 103.906 337.402 103.555C337.253 103.201 337.178 102.827 337.178 102.432V102.337C337.178 101.939 337.253 101.565 337.402 101.214C337.554 100.863 337.76 100.557 338.022 100.295C338.284 100.03 338.591 99.8236 338.941 99.6744C339.292 99.5251 339.667 99.4505 340.065 99.4505H342.555V97.9344C342.555 97.6988 342.51 97.4762 342.421 97.2667C342.332 97.0599 342.212 96.8792 342.06 96.7247C341.905 96.5729 341.725 96.4524 341.518 96.3634C341.308 96.2718 341.086 96.2259 340.85 96.2259H340.159C339.923 96.2259 339.701 96.2718 339.491 96.3634C339.284 96.4524 339.105 96.5729 338.953 96.7247C338.799 96.8792 338.677 97.0599 338.588 97.2667C338.499 97.4762 338.454 97.6988 338.454 97.9344V98.2879L337.272 98.0955V98.0012C337.272 97.6058 337.348 97.2314 337.5 96.8779C337.649 96.5271 337.855 96.2207 338.117 95.9589C338.378 95.697 338.685 95.4915 339.036 95.3422C339.389 95.1904 339.764 95.1144 340.159 95.1144H340.85C341.246 95.1144 341.62 95.1904 341.973 95.3422C342.324 95.4915 342.631 95.697 342.893 95.9589C343.154 96.2207 343.36 96.5271 343.509 96.8779C343.661 97.2314 343.737 97.6058 343.737 98.0012V105.126ZM342.555 102.498V100.37H340.065C339.826 100.37 339.604 100.414 339.397 100.503C339.19 100.592 339.009 100.715 338.855 100.872C338.703 101.029 338.581 101.211 338.49 101.418C338.401 101.628 338.356 101.85 338.356 102.086V102.498C338.356 102.734 338.401 102.957 338.49 103.166C338.581 103.373 338.703 103.554 338.855 103.708C339.009 103.86 339.19 103.98 339.397 104.069C339.604 104.161 339.826 104.207 340.065 104.207H340.85C341.086 104.207 341.308 104.161 341.518 104.069C341.725 103.98 341.905 103.86 342.06 103.708C342.212 103.554 342.332 103.373 342.421 103.166C342.51 102.957 342.555 102.734 342.555 102.498ZM352.653 102.432C352.653 102.827 352.578 103.201 352.429 103.555C352.277 103.906 352.07 104.212 351.808 104.474C351.546 104.736 351.24 104.941 350.889 105.091C350.538 105.242 350.164 105.318 349.766 105.318H348.98C348.585 105.318 348.211 105.242 347.857 105.091C347.506 104.941 347.2 104.736 346.938 104.474C346.676 104.212 346.469 103.906 346.317 103.555C346.168 103.201 346.094 102.827 346.094 102.432V98.0012C346.094 97.6058 346.168 97.2314 346.317 96.8779C346.469 96.5271 346.676 96.2207 346.938 95.9589C347.2 95.697 347.506 95.4915 347.857 95.3422C348.211 95.1904 348.585 95.1144 348.98 95.1144H349.766C350.164 95.1144 350.538 95.1904 350.889 95.3422C351.24 95.4915 351.546 95.697 351.808 95.9589C352.07 96.2207 352.277 96.5271 352.429 96.8779C352.578 97.2314 352.653 97.6058 352.653 98.0012V98.394L351.474 98.5864V97.9344C351.474 97.6988 351.43 97.4762 351.341 97.2667C351.249 97.0599 351.127 96.8792 350.976 96.7247C350.821 96.5729 350.64 96.4524 350.434 96.3634C350.227 96.2718 350.004 96.2259 349.766 96.2259H348.98C348.745 96.2259 348.522 96.2718 348.313 96.3634C348.106 96.4524 347.925 96.5729 347.771 96.7247C347.619 96.8792 347.498 97.0599 347.409 97.2667C347.318 97.4762 347.272 97.6988 347.272 97.9344V102.498C347.272 102.734 347.318 102.957 347.409 103.166C347.498 103.373 347.619 103.554 347.771 103.708C347.925 103.86 348.106 103.98 348.313 104.069C348.522 104.161 348.745 104.207 348.98 104.207H349.766C350.004 104.207 350.227 104.161 350.434 104.069C350.64 103.98 350.821 103.86 350.976 103.708C351.127 103.554 351.249 103.373 351.341 103.166C351.43 102.957 351.474 102.734 351.474 102.498V101.846L352.653 102.039V102.432ZM359.659 105.126H358.587C358.228 105.126 357.891 105.059 357.574 104.926C357.26 104.789 356.985 104.603 356.749 104.368C356.516 104.132 356.331 103.857 356.195 103.543C356.057 103.231 355.987 102.896 355.987 102.538V96.4302H354.224V95.3069H355.987V92.9464L357.169 92.7579V95.3069H359.659V96.4302H357.169V102.593C357.169 102.792 357.206 102.976 357.279 103.146C357.353 103.317 357.453 103.464 357.582 103.59C357.707 103.718 357.857 103.819 358.029 103.893C358.202 103.966 358.388 104.003 358.587 104.003H359.659V105.126ZM363.497 92.9464H362.126V91.3754H363.497V92.9464ZM363.398 105.126H362.22V95.3069H363.398V105.126ZM372.711 102.432C372.711 102.827 372.635 103.201 372.483 103.555C372.334 103.906 372.128 104.212 371.866 104.474C371.605 104.736 371.297 104.941 370.943 105.091C370.593 105.242 370.219 105.318 369.824 105.318H369.038C368.641 105.318 368.266 105.242 367.915 105.091C367.564 104.941 367.258 104.736 366.996 104.474C366.734 104.212 366.527 103.906 366.376 103.555C366.226 103.201 366.152 102.827 366.152 102.432V98.0012C366.152 97.6058 366.226 97.2314 366.376 96.8779C366.527 96.5271 366.734 96.2207 366.996 95.9589C367.258 95.697 367.564 95.4915 367.915 95.3422C368.266 95.1904 368.641 95.1144 369.038 95.1144H369.824C370.219 95.1144 370.593 95.1904 370.943 95.3422C371.297 95.4915 371.605 95.697 371.866 95.9589C372.128 96.2207 372.334 96.5271 372.483 96.8779C372.635 97.2314 372.711 97.6058 372.711 98.0012V102.432ZM371.529 102.498V97.9344C371.529 97.6988 371.484 97.4762 371.395 97.2667C371.306 97.0599 371.184 96.8792 371.03 96.7247C370.878 96.5729 370.699 96.4524 370.492 96.3634C370.282 96.2718 370.06 96.2259 369.824 96.2259H369.038C368.8 96.2259 368.578 96.2718 368.371 96.3634C368.164 96.4524 367.983 96.5729 367.829 96.7247C367.674 96.8792 367.553 97.0599 367.464 97.2667C367.375 97.4762 367.33 97.6988 367.33 97.9344V102.498C367.33 102.734 367.375 102.957 367.464 103.166C367.553 103.373 367.674 103.554 367.829 103.708C367.983 103.86 368.164 103.98 368.371 104.069C368.578 104.161 368.8 104.207 369.038 104.207H369.824C370.06 104.207 370.282 104.161 370.492 104.069C370.699 103.98 370.878 103.86 371.03 103.708C371.184 103.554 371.306 103.373 371.395 103.166C371.484 102.957 371.529 102.734 371.529 102.498ZM381.626 105.126H380.448V97.9344C380.448 97.6988 380.402 97.4762 380.311 97.2667C380.222 97.0599 380.101 96.8792 379.949 96.7247C379.795 96.5729 379.614 96.4524 379.407 96.3634C379.198 96.2718 378.975 96.2259 378.74 96.2259H377.954C377.718 96.2259 377.496 96.2718 377.286 96.3634C377.08 96.4524 376.899 96.5729 376.744 96.7247C376.593 96.8792 376.472 97.0599 376.383 97.2667C376.291 97.4762 376.246 97.6988 376.246 97.9344V105.126H375.067V95.3069H375.46L376.104 96.3045C376.371 95.9405 376.708 95.6512 377.114 95.4365C377.519 95.2218 377.962 95.1144 378.441 95.1144H378.74C379.135 95.1144 379.509 95.1904 379.863 95.3422C380.214 95.4915 380.52 95.697 380.782 95.9589C381.044 96.2207 381.251 96.5271 381.403 96.8779C381.552 97.2314 381.626 97.6058 381.626 98.0012V105.126Z" fill="black"/>
</g>
</g>
</g>
</g>
<g clip-path="url(#clip9_4_10)">
<g clip-path="url(#clip10_4_10)">
<path d="M0.4729 75.9223C0.4729 34.1427 34.3417 0.273926 76.1213 0.273926C117.901 0.273926 151.77 34.1427 151.77 75.9223C151.77 117.702 117.902 151.571 76.1213 151.571C34.3417 151.571 0.4729 117.703 0.4729 75.9223ZM76.1213 148.026C115.943 148.026 148.225 115.745 148.225 75.9223C148.225 36.1008 115.944 3.8189 76.1213 3.8189C36.2998 3.8189 4.01788 36.1008 4.01788 75.9223C4.01788 115.744 36.2998 148.026 76.1213 148.026Z" fill="black"/>
<path d="M76.1215 150.815C117.483 150.815 151.014 117.284 151.014 75.9226C151.014 34.5608 117.483 1.03046 76.1215 1.03046C34.7597 1.03046 1.22937 34.5608 1.22937 75.9226C1.22937 117.284 34.7597 150.815 76.1215 150.815Z" fill="black"/>
<g clip-path="url(#clip11_4_10)">
<g clip-path="url(#clip12_4_10)">
<path d="M80.7392 104.2C79.8617 104.2 79.0895 103.615 78.8633 102.761L70.673 72.5393L62.0304 89.4891C61.7418 90.0585 61.1919 90.4446 60.564 90.5421C59.9283 90.6201 59.3004 90.4017 58.8636 89.9376L50.4042 80.8114H33.2204C32.144 80.8114 31.2704 79.9377 31.2704 78.8613C31.2704 77.7849 32.144 76.9113 33.2204 76.9113H51.2506C51.7927 76.9113 52.3114 77.1375 52.6819 77.5353L59.823 85.238L69.4913 66.2679C69.8579 65.5503 70.6028 65.1174 71.4297 65.2149C72.2331 65.2968 72.9 65.8662 73.1106 66.6423L80.4935 93.865L89.7757 49.1972C89.9629 48.3041 90.7429 47.6566 91.6517 47.6527C92.5955 47.563 93.3599 48.2534 93.5783 49.1426L100.162 76.104L106.581 73.1789C106.831 73.0658 107.108 73.0034 107.389 73.0034H119.023C120.095 73.0034 120.973 73.877 120.973 74.9534C120.973 76.0299 120.095 76.9035 119.023 76.9035H107.802L99.6196 80.6281C99.093 80.8699 98.4846 80.8582 97.9659 80.6086C97.4394 80.3551 97.0611 79.8753 96.9168 79.3137L91.8272 58.4521L82.6463 102.648C82.463 103.541 81.6986 104.185 80.7938 104.2C80.7743 104.2 80.7548 104.2 80.7392 104.2Z" fill="white"/>
</g>
</g>
</g>
</g>
</g>
</g>
</g>
<defs>
<clipPath id="clip0_4_10">
<rect width="432" height="151.488" fill="white" transform="translate(0 0.17865)"/>
</clipPath>
<clipPath id="clip1_4_10">
<rect width="431.054" height="151.297" fill="white" transform="translate(0.4729 0.273926)"/>
</clipPath>
<clipPath id="clip2_4_10">
<rect width="431.054" height="151.297" fill="white" transform="translate(0.4729 0.273926)"/>
</clipPath>
<clipPath id="clip3_4_10">
<rect width="261.198" height="66.2697" fill="white" transform="translate(170.329 42.7877)"/>
</clipPath>
<clipPath id="clip4_4_10">
<rect width="261.198" height="66.2697" fill="white" transform="translate(170.329 42.7877)"/>
</clipPath>
<clipPath id="clip5_4_10">
<rect width="261.198" height="39.308" fill="white" transform="translate(170.329 42.7877)"/>
</clipPath>
<clipPath id="clip6_4_10">
<rect width="261.198" height="39.308" fill="white" transform="translate(170.329 42.7877)"/>
</clipPath>
<clipPath id="clip7_4_10">
<rect width="161.42" height="17.682" fill="white" transform="translate(220.218 91.3754)"/>
</clipPath>
<clipPath id="clip8_4_10">
<rect width="161.42" height="17.682" fill="white" transform="translate(220.218 91.3754)"/>
</clipPath>
<clipPath id="clip9_4_10">
<rect width="151.297" height="151.297" fill="white" transform="translate(0.4729 0.273926)"/>
</clipPath>
<clipPath id="clip10_4_10">
<rect width="151.297" height="151.297" fill="white" transform="translate(0.4729 0.273926)"/>
</clipPath>
<clipPath id="clip11_4_10">
<rect width="89.7022" height="56.5554" fill="white" transform="translate(31.2704 47.6449)"/>
</clipPath>
<clipPath id="clip12_4_10">
<rect width="89.7022" height="56.5554" fill="white" transform="translate(31.2704 47.6449)"/>
</clipPath>
</defs>
</svg>
