<svg width="488" height="488" viewBox="0 0 488 488" fill="none" xmlns="http://www.w3.org/2000/svg">
<path d="M456.433 198.554H289.446V31.567C289.446 14.403 275.532 0.488037 258.367 0.488037H229.632C212.468 0.488037 198.553 14.402 198.553 31.567V198.554H31.567C14.403 198.554 0.488007 212.468 0.488007 229.633V258.368C0.488007 275.532 14.402 289.447 31.567 289.447H198.554V456.434C198.554 473.598 212.468 487.513 229.633 487.513H258.368C275.532 487.513 289.447 473.599 289.447 456.434V289.446H456.434C473.598 289.446 487.513 275.532 487.513 258.367V229.632C487.512 212.468 473.597 198.554 456.433 198.554Z" fill="white"/>
</svg>
